<svg id="Layer_1" data-name="Layer 1" xmlns="http://www.w3.org/2000/svg" viewBox="0 0 1058.2 385.38"><defs><style>.cls-1,.cls-2,.cls-3{fill:#fff;}.cls-2{font-size:164.17px;}.cls-2,.cls-3{font-family:AbydosBold, Abydos;}.cls-3{font-size:54.72px;}.cls-4{font-family:Abydos;letter-spacing:0em;}</style></defs><title>logo</title><path class="cls-1" d="M285.16,184.07c-24.42-74.82-98.53-36.1-77-126,3.2-13.35.85-46.71-29.91-52.51-.16,0-3.18-.47-3.35-.47C144.72.76,133.26,34.67,131.68,48.3c-9.34,80.83-68.14,32.92-112.44,98s48,42.51,59.42,128.78c5.77,56.62-8.26,63.16-14.2,90.28-11.85,54.21,86.92,14.8,127.76-74.14C227.26,211.53,309.57,258.9,285.16,184.07ZM166.61,47.68c-1,7.26-6.14,12.53-11.42,11.78s-8.71-7.24-7.68-14.49,6.14-12.53,11.42-11.78S167.65,40.43,166.61,47.68ZM196.72,52c-1,7.25-6.15,12.53-11.43,11.78s-8.71-7.24-7.68-14.49S183.75,36.72,189,37.47,197.75,44.71,196.72,52Z" transform="translate(-7.29 -4.7)"/><text class="cls-2" transform="translate(324.01 247.3)">StranHors</text><text class="cls-3" transform="translate(421.14 312.29)">explore <tspan class="cls-4" x="181.51" y="0">mystical</tspan><tspan x="381.75" y="0" xml:space="preserve"> stories</tspan></text></svg>